<?xml version="1.0" encoding="UTF-8"?>
<svg width="15px" height="17px" viewBox="0 0 15 17" version="1.1" xmlns="http://www.w3.org/2000/svg" xmlns:xlink="http://www.w3.org/1999/xlink">
    <!-- Generator: Sketch 63 (92445) - https://sketch.com -->
    <title>刷新</title>
    <desc>Created with Sketch.</desc>
    <g id="页面-1" stroke="none" stroke-width="1" fill="none" fill-rule="evenodd">
        <g id="热搜弹出框" transform="translate(-1815.000000, -35.000000)" fill-rule="nonzero">
            <g id="刷新" transform="translate(1812.000000, 34.000000)">
                <rect id="矩形" fill="#000000" opacity="0" x="0" y="0" width="20" height="20"></rect>
                <path d="M7.41,17 C5.6,16.1244531 4.05222656,14.2033203 3.54222656,12.2 C3.06222656,10.3155469 3.42,8.27554687 4.52888672,6.56445312 C5.48220703,5.09554687 6.81777344,4.10554687 8.77333984,3.41777344 C9.25556641,3.24777344 9.65111328,3.05888672 9.65111328,2.99667969 C9.65111328,2.93554687 9.43777344,2.67222656 9.17666016,2.41222656 C8.64333984,1.88111328 8.59888672,1.69111328 8.93445313,1.35222656 C9.32332031,0.958886719 9.64890625,1.03333984 10.3344531,1.67111328 C10.6633398,1.97666016 11.2444531,2.47777344 11.6255469,2.78445312 C12.3722266,3.38445312 12.5555469,3.65554687 12.4633398,4.02666016 C12.4111133,4.23111328 11.3333398,5.64333984 10.5333398,6.55556641 C10.1577734,6.98333984 9.90666016,7.09443359 9.61888672,6.96220703 C9.47567036,6.88905024 9.35563397,6.7774874 9.27220703,6.64 C9.13333984,6.37554687 9.25888672,6.09777344 9.83445312,5.40222656 C10.0455469,5.14666016 10.22,4.90222656 10.22,4.86111328 C10.22,4.70888672 9.71888672,4.66554687 9.14666016,4.76888672 C8.14554688,4.94888672 7.25554688,5.45222656 6.37333984,6.33554687 C5.93333984,6.77666016 5.49,7.32666016 5.35445313,7.59888672 C4.39888672,9.52 4.44554687,11.7355469 5.47888672,13.5122266 C5.95666016,14.3311133 7.06554687,15.3844531 7.88,15.79 C9.77111328,16.7322266 11.8711133,16.6766602 13.6355469,15.6388867 C15.75,14.3977734 16.9444531,11.7433594 16.4488867,9.39111328 C16.2788867,8.58 15.777793,7.47222656 15.2911133,6.82666016 C14.8477734,6.24 14.7388867,5.98222656 14.81,5.69333984 C14.8866602,5.38554687 15.3244531,5.21666016 15.6377734,5.37556641 C16.1933398,5.65445312 17.2466602,7.32222656 17.5877734,8.46111328 C17.86,9.36666016 17.8355469,11.49 17.5433398,12.4444531 C17.2877734,13.2777734 16.64,14.5611133 16.1833398,15.1411133 C15.7111133,15.7411133 14.65,16.61 13.9166602,17.0011133 C12.7611133,17.6144531 11.1155469,17.9011133 9.74556641,17.7277734 C8.84111328,17.6133203 8.37554688,17.4677734 7.41,17 Z" id="路径" fill="#999999"></path>
            </g>
        </g>
    </g>
</svg>